# xmcd
#
# Track frame offsets:
#	150
#	18762
#	42313
#	75791
#	98092
#	113473
#	131875
#	153165
#	181884
#	200071
#	254924
#	283146
#
# Disc length: 4200 seconds
#
# Revision: 2
# Processed by: cddbd v1.4b42PL1 Copyright (c) Steve Scherf et al.
# Submitted via: EZCDDA 4.3.2
#
DISCID=9a10660c
DTITLE=Buddy Guy - Ah'w baby everithing gonna be alright
DYEAR=1900
DGENRE=
TTITLE0=Buddy Guy - Ah'w Baby Everything Gonna Be Alright
TTITLE1=Buddy Guy - All Your Love
TTITLE2=Buddy Guy - Baby Please Don't Leave Me
TTITLE3=Buddy Guy - Checking On My Baby
TTITLE4=Buddy Guy - Done Got Old
TTITLE5=Buddy Guy - Feelin' Good What I'd Say
TTITLE6=Buddy Guy - Girl You're Nice Clean
TTITLE7=Buddy Guy - How Can One Woman Be So Mean
TTITLE8=Buddy Guy - I Got My Eyes On You
TTITLE9=Buddy Guy - I Gotta Try You Girl
TTITLE10=Buddy Guy - I Had a Dream Last Night
TTITLE11=Buddy Guy - I'm Not The Best
EXTD=
EXTT0=
EXTT1=
EXTT2=
EXTT3=
EXTT4=
EXTT5=
EXTT6=
EXTT7=
EXTT8=
EXTT9=
EXTT10=
EXTT11=
PLAYORDER=
